<?xml version="1.0" encoding="utf-8"?>
<!-- Generator: Adobe Illustrator 25.2.0, SVG Export Plug-In . SVG Version: 6.00 Build 0)  -->
<svg version="1.1" xmlns="http://www.w3.org/2000/svg" xmlns:xlink="http://www.w3.org/1999/xlink" x="0px" y="0px"
	 viewBox="0 0 721.57 469.3" style="enable-background:new 0 0 721.57 469.3;" xml:space="preserve">
<style type="text/css">
	.st0{fill:none;}
	.st1{font-family:'Objectivity-Black';}
	.st2{font-size:111px;}
	.st3{letter-spacing:2;}
</style>
<g id="Camada_1">
	<rect x="51.01" y="216.09" width="127.07" height="142.96"/>
	<path d="M109.55,430.52H56.01c-2.76,0-5-2.24-5-5v-76.1h63.54v76.1C114.55,428.28,112.31,430.52,109.55,430.52z"/>
	<path d="M173.09,412.96h-53.54c-2.76,0-5-2.24-5-5v-58.54h63.54v58.54C178.09,410.72,175.85,412.96,173.09,412.96z"/>
	<path d="M51.46,305.48H29.7c-2.76,0-5-2.24-5-5v-79.39c0-2.76,2.24-5,5-5h26.77v84.39C56.46,303.24,54.23,305.48,51.46,305.48z"/>
	<path d="M188.74,216.09H158v-66.48c0-2.76,2.24-5,5-5h25.74c2.76,0,5,2.24,5,5v61.48C193.74,213.85,191.5,216.09,188.74,216.09z"/>
	<rect x="170.22" y="137.3" width="9.35" height="7.3"/>
	<rect x="188.17" y="89.65" width="9.35" height="24.43"/>
	<rect x="180.63" y="82.11" transform="matrix(6.123234e-17 -1 1 6.123234e-17 90.9783 279.6304)" width="9.35" height="24.43"/>
	<rect x="179.27" y="108.43" transform="matrix(-0.8247 -0.5656 0.5656 -0.8247 264.4345 333.7355)" width="9.35" height="34.9"/>
	<path d="M173.09,77.26v32.96c0,2.76-2.24,5-5,5H78.35c-2.76,0-5-2.24-5-5V77.26c0-2.76,2.24-5,5-5h89.74
		C170.85,72.26,173.09,74.5,173.09,77.26z"/>
</g>
<g id="Camada_2">
	<path d="M143.35,180.39c0,19.74-16,35.74-35.74,35.74s-35.74-16-35.74-35.74H143.35z"/>
	<path d="M147.96,175.61h-0.42c-2.04-11.45-11.2-21.18-22.37-26.54v0.71c0,1.66-1.34,3-3,3h-2.43c-1.66,0-3-1.34-3-3v-3.8
		c-1.64-0.42-3.3-0.75-4.96-0.98v9c0,1.66-1.34,3-3,3h-2.43c-1.66,0-3-1.34-3-3v-9.2c-1.68,0.15-3.35,0.41-5,0.77v4.22
		c0,1.66-1.34,3-3,3h-2.43c-1.66,0-3-1.34-3-3v-1.38c-11.33,5.18-20.39,15.26-22.34,27.21h-0.4c-2.62,0-4.74,2.12-4.74,4.74v0
		c0,2.62,2.12,4.74,4.74,4.74h80.78c2.62,0,4.74-2.12,4.74-4.74v0C152.7,177.73,150.57,175.61,147.96,175.61z"/>
</g>
<g id="Camada_3">
	<rect x="207.04" y="216.09" class="st0" width="527.65" height="279.65"/>
	<text transform="matrix(1 0 0 1 207.0434 299.337)"><tspan x="0" y="0" class="st1 st2">CROMA </tspan><tspan x="0" y="109.2" class="st1 st2 st3">PINTOR</tspan></text>
</g>
</svg>
