<?xml version="1.0" encoding="utf-8"?>
<!-- Generator: Adobe Illustrator 25.2.0, SVG Export Plug-In . SVG Version: 6.00 Build 0)  -->
<svg version="1.1" xmlns="http://www.w3.org/2000/svg" xmlns:xlink="http://www.w3.org/1999/xlink" x="0px" y="0px"
	 viewBox="0 0 721.57 469.3" style="enable-background:new 0 0 721.57 469.3;" xml:space="preserve">
<g id="Camada_1">
</g>
<g id="Camada_2">
</g>
<g id="Camada_3">
	<g>
		<path d="M188.74,144.61h-9.17v-4.08l18.1-26.39l-0.15-0.1V99v-9.35h-9.35h-15.09V77.26c0-2.76-2.24-5-5-5H78.35
			c-2.76,0-5,2.24-5,5v32.96c0,2.76,2.24,5,5,5h89.74c2.76,0,5-2.24,5-5V99h15.09v12.45l-17.73,25.85h-0.22v7.3H163
			c-2.76,0-5,2.24-5,5v66.48h-48.81c17.43-0.76,31.61-14,33.84-31h4.93c2.62,0,4.74-2.12,4.74-4.74v0c0-2.62-2.12-4.74-4.74-4.74
			h-0.42c-2.04-11.45-11.2-21.18-22.37-26.54v0.71c0,1.66-1.34,3-3,3h-2.43c-1.66,0-3-1.34-3-3v-3.8c-1.64-0.42-3.3-0.75-4.96-0.98
			v9c0,1.66-1.34,3-3,3h-2.43c-1.66,0-3-1.34-3-3v-9.2c-1.68,0.15-3.35,0.41-5,0.77v4.22c0,1.66-1.34,3-3,3h-2.43
			c-1.66,0-3-1.34-3-3v-1.38c-11.33,5.18-20.39,15.26-22.34,27.21h-0.4c-2.62,0-4.74,2.12-4.74,4.74v0c0,2.62,2.12,4.74,4.74,4.74
			h5.01c2.23,17,16.41,30.24,33.84,31H56.46h-5.45H29.7c-2.76,0-5,2.24-5,5v79.39c0,2.76,2.24,5,5,5h21.32v43.94v9.62v66.48
			c0,2.76,2.24,5,5,5h53.54c2.76,0,5-2.24,5-5v-17.57c0,2.76,2.24,5,5,5h53.54c2.76,0,5-2.24,5-5v-48.91v-9.62V216.09h10.65
			c2.76,0,5-2.24,5-5v-61.48C193.74,146.85,191.5,144.61,188.74,144.61z"/>
		<g>
			<path d="M270.42,265.71l26.75,2.77c-1,19.53-18.76,33.63-42.29,33.63c-25.75,0-44.4-17.98-44.4-42.73
				c0-24.75,18.65-42.73,44.4-42.73c22.98,0,40.62,14.1,41.96,33.63l-26.53,2.77c-1.22-6.99-7.33-11.99-14.43-11.99
				c-9.99,0-16.54,7.33-16.54,18.31c0,10.99,6.66,18.31,16.43,18.31C262.87,277.69,269.09,272.7,270.42,265.71z"/>
			<path d="M336.13,274.92v24.42h-28.86v-79.91h42.51c20.53,0,34.08,11.43,34.08,28.86c0,10.77-5.88,18.87-15.54,23.09l18.2,27.97
				H355l-12.21-24.42H336.13z M336.13,239.4v17.76h7.77c5.99,0,11.1-3.22,11.1-8.88s-5.11-8.88-11.1-8.88H336.13z"/>
			<path d="M391.08,259.38c0-25.64,18.2-42.73,45.51-42.73c27.3,0,45.51,17.09,45.51,42.73c0,25.64-18.2,42.73-45.51,42.73
				C409.28,302.11,391.08,285.02,391.08,259.38z M419.94,259.38c0,10.99,6.66,18.31,16.65,18.31s16.65-7.33,16.65-18.31
				c0-10.99-6.66-18.31-16.65-18.31S419.94,248.39,419.94,259.38z"/>
			<path d="M519.95,299.34H492.2v-79.91h36.18l16.54,50.83l15.87-50.83h36.85v79.91H569.9v-45.95l-14.43,45.95h-21.09l-14.43-45.95
				V299.34z"/>
			<path d="M637.17,289.35l-2.55,9.99h-30.08l23.42-79.91h42.18l23.42,79.91h-30.08l-2.55-9.99H637.17z M649.04,243.73l-6.66,25.64
				h13.32L649.04,243.73z"/>
			<path d="M241.56,388.56v19.98h-27.75v-79.91h41.4c20.42,0,34.07,11.99,34.07,29.97c0,17.98-13.76,29.97-34.41,29.97H241.56z
				 M241.56,348.6v19.98h7.77c6.66,0,11.1-4,11.1-9.99s-4.44-9.99-11.1-9.99H241.56z"/>
			<path d="M329.36,328.62v79.91H300.5v-79.91H329.36z"/>
			<path d="M397.29,373.8v-45.17h26.64v79.91h-28.86l-23.31-44.95v44.95h-26.64v-79.91h28.86L397.29,373.8z"/>
			<path d="M455.23,351.93h-21.09v-23.31h71.04v23.31h-21.09v56.61h-28.86V351.93z"/>
			<path d="M512.06,368.58c0-25.64,18.2-42.73,45.51-42.73c27.3,0,45.51,17.09,45.51,42.73c0,25.64-18.2,42.73-45.51,42.73
				C530.27,411.31,512.06,394.22,512.06,368.58z M540.92,368.58c0,10.99,6.66,18.31,16.65,18.31s16.65-7.33,16.65-18.31
				c0-10.99-6.66-18.31-16.65-18.31S540.92,357.59,540.92,368.58z"/>
			<path d="M644.26,384.12v24.42h-28.86v-79.91h42.51c20.53,0,34.08,11.43,34.08,28.86c0,10.77-5.88,18.87-15.54,23.09l18.2,27.97
				h-31.52l-12.21-24.42H644.26z M644.26,348.6v17.76h7.77c5.99,0,11.1-3.22,11.1-8.88s-5.11-8.88-11.1-8.88H644.26z"/>
		</g>
	</g>
</g>
</svg>
