<svg xmlns="http://www.w3.org/2000/svg" xmlns:xlink="http://www.w3.org/1999/xlink" version="1.1" x="0px" y="0px" viewBox="0 0 24 30" enable-background="new 0 0 24 24" xml:space="preserve"><path d="M20.9,11.6l-3.9-9C16.8,2.2,16.5,2,16.1,2L7.8,2C7.5,2,7.1,2.3,7,2.6l-3.9,9C2.8,12.3,3.3,13,4,13l5,0c-1.3,2.3-1.3,4.7,0,7  l-1,0c-0.6,0-1,0.4-1,1l0,1l10,0l0-1c0-0.6-0.4-1-1-1l-1,0c1.3-2.3,1.3-4.7,0-7l5,0C20.7,13,21.2,12.2,20.9,11.6z"/><text x="0" y="39" fill="#000000" font-size="5px" font-weight="bold" font-family="'Helvetica Neue', Helvetica, Arial-Unicode, Arial, Sans-serif">Created by Creative Stall</text><text x="0" y="44" fill="#000000" font-size="5px" font-weight="bold" font-family="'Helvetica Neue', Helvetica, Arial-Unicode, Arial, Sans-serif">from the Noun Project</text></svg>